<svg xmlns="http://www.w3.org/2000/svg" width="1400" height="860" viewBox="0 0 1400 860">
  <rect width="1400" height="860" rx="24" fill="#0b1020"/>
  <text x="700" y="80" text-anchor="middle" fill="#e2e8f0" font-size="54" font-weight="700" font-family="Inter,Segoe UI,sans-serif">NexusMind Feature Matrix</text>
  <text x="700" y="122" text-anchor="middle" fill="#94a3b8" font-size="26" font-family="Inter,Segoe UI,sans-serif">Readable, high-contrast visuals for GitHub README</text>

  <g font-family="Inter,Segoe UI,sans-serif">
    <rect x="90" y="170" width="380" height="260" rx="20" fill="#1d4ed8"/>
    <text x="280" y="240" text-anchor="middle" fill="white" font-size="56">🧠</text>
    <text x="280" y="300" text-anchor="middle" fill="white" font-size="34" font-weight="700">Persistent Memory</text>
    <text x="280" y="345" text-anchor="middle" fill="#dbeafe" font-size="24">跨会话保留上下文与偏好</text>

    <rect x="510" y="170" width="380" height="260" rx="20" fill="#7c3aed"/>
    <text x="700" y="240" text-anchor="middle" fill="white" font-size="56">⚡</text>
    <text x="700" y="300" text-anchor="middle" fill="white" font-size="34" font-weight="700">Skill Evolution</text>
    <text x="700" y="345" text-anchor="middle" fill="#ede9fe" font-size="24">从高频任务自动沉淀技能</text>

    <rect x="930" y="170" width="380" height="260" rx="20" fill="#0ea5e9"/>
    <text x="1120" y="240" text-anchor="middle" fill="white" font-size="56">🔎</text>
    <text x="1120" y="300" text-anchor="middle" fill="white" font-size="34" font-weight="700">Hybrid RAG 2.0</text>
    <text x="1120" y="345" text-anchor="middle" fill="#e0f2fe" font-size="24">语义 + 词法融合检索</text>

    <rect x="90" y="470" width="380" height="260" rx="20" fill="#16a34a"/>
    <text x="280" y="540" text-anchor="middle" fill="white" font-size="56">🌙</text>
    <text x="280" y="600" text-anchor="middle" fill="white" font-size="34" font-weight="700">Sleep Mode</text>
    <text x="280" y="645" text-anchor="middle" fill="#dcfce7" font-size="24">离线自动执行计划任务</text>

    <rect x="510" y="470" width="380" height="260" rx="20" fill="#e11d48"/>
    <text x="700" y="540" text-anchor="middle" fill="white" font-size="56">🤝</text>
    <text x="700" y="600" text-anchor="middle" fill="white" font-size="34" font-weight="700">Multi-Agent</text>
    <text x="700" y="645" text-anchor="middle" fill="#ffe4e6" font-size="24">研究/编码/数据智能体协作</text>

    <rect x="930" y="470" width="380" height="260" rx="20" fill="#f59e0b"/>
    <text x="1120" y="540" text-anchor="middle" fill="white" font-size="56">🔌</text>
    <text x="1120" y="600" text-anchor="middle" fill="white" font-size="34" font-weight="700">Multi-Provider</text>
    <text x="1120" y="645" text-anchor="middle" fill="#fef3c7" font-size="24">OpenAI / Anthropic / Ollama</text>
  </g>
</svg>
