<?xml version="1.0" encoding="UTF-8"?>
<svg xmlns="http://www.w3.org/2000/svg" viewBox="0 0 780 200" width="780" height="200">
  <!-- Background -->
  <rect width="780" height="200" rx="10" fill="#0d1117"/>
  <rect width="780" height="200" rx="10" fill="none" stroke="#30363d" stroke-width="1"/>

  
    <g transform="translate(15, 30)">
      <rect width="118" height="140" rx="10" fill="#161b22" stroke="#30363d" stroke-width="1"/>
      <!-- Top accent line -->
      <rect width="118" height="3" rx="1" fill="#58a6ff" opacity="0.6" y="0"/>
      <!-- Icon -->
      <text x="59" y="42" font-family="'Segoe UI', system-ui, sans-serif" font-size="26" fill="#58a6ff" text-anchor="middle">&#128190;</text>
      <!-- Value -->
      <text x="59" y="82" font-family="'Segoe UI', system-ui, sans-serif" font-size="24" font-weight="800" fill="#f0f6fc" text-anchor="middle">50MB</text>
      <!-- Label -->
      <text x="59" y="108" font-family="'Segoe UI', system-ui, sans-serif" font-size="12" fill="#8b949e" text-anchor="middle">Install Size</text>
      <!-- Subtle gradient bar -->
      <rect x="20" y="120" width="78" height="4" rx="2" fill="#58a6ff" opacity="0.2"/>
      <rect x="20" y="120" width="55" height="4" rx="2" fill="#58a6ff" opacity="0.5"/>
    </g>
    <g transform="translate(143, 30)">
      <rect width="118" height="140" rx="10" fill="#161b22" stroke="#30363d" stroke-width="1"/>
      <!-- Top accent line -->
      <rect width="118" height="3" rx="1" fill="#3fb950" opacity="0.6" y="0"/>
      <!-- Icon -->
      <text x="59" y="42" font-family="'Segoe UI', system-ui, sans-serif" font-size="26" fill="#3fb950" text-anchor="middle">&#9889;</text>
      <!-- Value -->
      <text x="59" y="82" font-family="'Segoe UI', system-ui, sans-serif" font-size="24" font-weight="800" fill="#f0f6fc" text-anchor="middle">&lt;3s</text>
      <!-- Label -->
      <text x="59" y="108" font-family="'Segoe UI', system-ui, sans-serif" font-size="12" fill="#8b949e" text-anchor="middle">Start Time</text>
      <!-- Subtle gradient bar -->
      <rect x="20" y="120" width="78" height="4" rx="2" fill="#3fb950" opacity="0.2"/>
      <rect x="20" y="120" width="55" height="4" rx="2" fill="#3fb950" opacity="0.5"/>
    </g>
    <g transform="translate(271, 30)">
      <rect width="118" height="140" rx="10" fill="#161b22" stroke="#30363d" stroke-width="1"/>
      <!-- Top accent line -->
      <rect width="118" height="3" rx="1" fill="#bc8cff" opacity="0.6" y="0"/>
      <!-- Icon -->
      <text x="59" y="42" font-family="'Segoe UI', system-ui, sans-serif" font-size="26" fill="#bc8cff" text-anchor="middle">&#128640;</text>
      <!-- Value -->
      <text x="59" y="82" font-family="'Segoe UI', system-ui, sans-serif" font-size="24" font-weight="800" fill="#f0f6fc" text-anchor="middle">60 tok/s</text>
      <!-- Label -->
      <text x="59" y="108" font-family="'Segoe UI', system-ui, sans-serif" font-size="12" fill="#8b949e" text-anchor="middle">Speed</text>
      <!-- Subtle gradient bar -->
      <rect x="20" y="120" width="78" height="4" rx="2" fill="#bc8cff" opacity="0.2"/>
      <rect x="20" y="120" width="55" height="4" rx="2" fill="#bc8cff" opacity="0.5"/>
    </g>
    <g transform="translate(399, 30)">
      <rect width="118" height="140" rx="10" fill="#161b22" stroke="#30363d" stroke-width="1"/>
      <!-- Top accent line -->
      <rect width="118" height="3" rx="1" fill="#d29922" opacity="0.6" y="0"/>
      <!-- Icon -->
      <text x="59" y="42" font-family="'Segoe UI', system-ui, sans-serif" font-size="26" fill="#d29922" text-anchor="middle">&#128295;</text>
      <!-- Value -->
      <text x="59" y="82" font-family="'Segoe UI', system-ui, sans-serif" font-size="24" font-weight="800" fill="#f0f6fc" text-anchor="middle">50+</text>
      <!-- Label -->
      <text x="59" y="108" font-family="'Segoe UI', system-ui, sans-serif" font-size="12" fill="#8b949e" text-anchor="middle">Plugins</text>
      <!-- Subtle gradient bar -->
      <rect x="20" y="120" width="78" height="4" rx="2" fill="#d29922" opacity="0.2"/>
      <rect x="20" y="120" width="55" height="4" rx="2" fill="#d29922" opacity="0.5"/>
    </g>
    <g transform="translate(527, 30)">
      <rect width="118" height="140" rx="10" fill="#161b22" stroke="#30363d" stroke-width="1"/>
      <!-- Top accent line -->
      <rect width="118" height="3" rx="1" fill="#f778ba" opacity="0.6" y="0"/>
      <!-- Icon -->
      <text x="59" y="42" font-family="'Segoe UI', system-ui, sans-serif" font-size="26" fill="#f778ba" text-anchor="middle">&#127760;</text>
      <!-- Value -->
      <text x="59" y="82" font-family="'Segoe UI', system-ui, sans-serif" font-size="24" font-weight="800" fill="#f0f6fc" text-anchor="middle">30+</text>
      <!-- Label -->
      <text x="59" y="108" font-family="'Segoe UI', system-ui, sans-serif" font-size="12" fill="#8b949e" text-anchor="middle">Languages</text>
      <!-- Subtle gradient bar -->
      <rect x="20" y="120" width="78" height="4" rx="2" fill="#f778ba" opacity="0.2"/>
      <rect x="20" y="120" width="55" height="4" rx="2" fill="#f778ba" opacity="0.5"/>
    </g>
    <g transform="translate(655, 30)">
      <rect width="118" height="140" rx="10" fill="#161b22" stroke="#30363d" stroke-width="1"/>
      <!-- Top accent line -->
      <rect width="118" height="3" rx="1" fill="#56d4dd" opacity="0.6" y="0"/>
      <!-- Icon -->
      <text x="59" y="42" font-family="'Segoe UI', system-ui, sans-serif" font-size="26" fill="#56d4dd" text-anchor="middle">&#128229;</text>
      <!-- Value -->
      <text x="59" y="82" font-family="'Segoe UI', system-ui, sans-serif" font-size="24" font-weight="800" fill="#f0f6fc" text-anchor="middle">1M+</text>
      <!-- Label -->
      <text x="59" y="108" font-family="'Segoe UI', system-ui, sans-serif" font-size="12" fill="#8b949e" text-anchor="middle">Downloads</text>
      <!-- Subtle gradient bar -->
      <rect x="20" y="120" width="78" height="4" rx="2" fill="#56d4dd" opacity="0.2"/>
      <rect x="20" y="120" width="55" height="4" rx="2" fill="#56d4dd" opacity="0.5"/>
    </g>
</svg>